<svg width="16" height="16" viewBox="0 0 16 16" fill="none" xmlns="http://www.w3.org/2000/svg">
<g clip-path="url(#clip0)">
<path d="M0.159867 11.7037L0.961413 12.5051C1.06822 12.6122 1.19125 12.6655 1.33035 12.6655C1.46911 12.6655 1.59208 12.6122 1.69889 12.5051L7.99991 6.20447L14.3007 12.505C14.4075 12.612 14.5305 12.6654 14.6694 12.6654C14.8084 12.6654 14.9314 12.612 15.0382 12.505L15.8396 11.7034C15.9467 11.5966 16 11.4737 16 11.3347C16 11.1958 15.9465 11.0728 15.8396 10.966L8.36868 3.49491C8.26187 3.38804 8.13884 3.33464 7.99991 3.33464C7.86099 3.33464 7.73818 3.38804 7.63143 3.49491L0.159867 10.966C0.0530616 11.0729 -3.68621e-06 11.1959 -3.69835e-06 11.3347C-3.7105e-06 11.4737 0.0530616 11.5966 0.159867 11.7037Z" fill="white"/>
</g>
<defs>
<clipPath id="clip0">
<rect width="16" height="16" fill="white" transform="translate(16 16) rotate(-180)"/>
</clipPath>
</defs>
</svg>
