<svg width="12" height="12" viewBox="0 0 12 12" fill="none" xmlns="http://www.w3.org/2000/svg">
<path d="M7.85742 6.19639L11.9266 2.67212C12.0243 2.58751 12.0243 2.45037 11.9266 2.36577L10.4233 1.06348C10.3764 1.02286 10.3126 1 10.2464 1C10.1801 1 10.1165 1.02286 10.0696 1.06348L6.00012 4.58786L1.93068 1.06348C1.83687 0.982235 1.67077 0.982235 1.57696 1.06348L0.0735091 2.36577C-0.0241775 2.45037 -0.0241775 2.58751 0.0735091 2.67212L4.14283 6.19639L0.0735091 9.72066C-0.0241775 9.80526 -0.0241775 9.9424 0.0735091 10.027L1.57696 11.3292C1.62386 11.3698 1.68753 11.3927 1.75382 11.3927C1.82011 11.3927 1.88378 11.3698 1.93068 11.3292L6.00012 7.80481L10.0696 11.3292C10.1165 11.3698 10.1801 11.3927 10.2464 11.3927C10.3126 11.3927 10.3764 11.3698 10.4233 11.3292L11.9267 10.027C12.0244 9.9424 12.0244 9.80515 11.9267 9.72066L7.85742 6.19639Z" fill="white"/>
</svg>
