<svg width="12" height="12" viewBox="0 0 12 12" fill="none" xmlns="http://www.w3.org/2000/svg">
<g clip-path="url(#clip0)">
<path d="M11.7507 2.13563H0.249375C0.111754 2.13563 6.10352e-05 2.24732 6.10352e-05 2.38494V9.61506C6.10352e-05 9.75268 0.111754 9.86438 0.249375 9.86438H11.7507C11.8884 9.86438 12.0001 9.75268 12.0001 9.61506V2.38494C12.0001 2.24732 11.8882 2.13563 11.7507 2.13563ZM11.335 4.34119C11.335 4.4095 11.2977 4.47233 11.238 4.50511L6.09094 7.32361C6.06289 7.33895 6.03197 7.34667 6.00106 7.34667C5.97014 7.34667 5.93923 7.33895 5.91118 7.32374L0.76234 4.50524C0.70238 4.47245 0.665107 4.4095 0.665107 4.34119V3.40003C0.665107 3.33458 0.699263 3.274 0.755359 3.24009C0.811081 3.20631 0.881013 3.20394 0.938854 3.23436L5.88575 5.82249C5.95456 5.85864 6.04793 5.85852 6.11699 5.82237L11.0614 3.23448C11.1191 3.20406 11.1887 3.20631 11.2449 3.24022C11.3007 3.27412 11.3351 3.33471 11.3351 3.40015L11.335 4.34119Z" fill="white"/>
</g>
<defs>
<clipPath id="clip0">
<rect width="12" height="12" fill="white"/>
</clipPath>
</defs>
</svg>
