<svg xmlns="http://www.w3.org/2000/svg" width="752" height="195" viewBox="0 0 752 195"><g><g><path fill="#fff" d="M52.95 79.89c4.876 0 8.829-3.949 8.829-8.82s-3.953-8.82-8.83-8.82c-4.876 0-8.829 3.949-8.829 8.82 0 4.872 3.953 8.82 8.83 8.82z"/></g><g><path fill="#fff" d="M8.83 135.71c4.876 0 8.829-3.949 8.829-8.82s-3.953-8.82-8.83-8.82c-4.876 0-8.829 3.949-8.829 8.82s3.953 8.82 8.83 8.82z"/></g><g><path fill="#fff" d="M52.95 165.1c4.876 0 8.829-3.948 8.829-8.82 0-4.871-3.953-8.82-8.83-8.82-4.876 0-8.829 3.949-8.829 8.82 0 4.872 3.953 8.82 8.83 8.82z"/></g><g><path fill="#fff" d="M204.413 188.601c4.067 0 7.363-3.293 7.363-7.356 0-4.062-3.296-7.355-7.363-7.355-4.066 0-7.363 3.293-7.363 7.355 0 4.063 3.297 7.356 7.363 7.356z"/></g><g><path fill="#fff" d="M76.468 118.07H38.249c-4.876 0-8.829 3.949-8.829 8.82s3.953 8.82 8.83 8.82h38.218c4.876 0 8.83-3.949 8.83-8.82s-3.954-8.82-8.83-8.82z"/></g><g><path fill="#fff" d="M23.524 170.96H8.829c-4.876 0-8.829 3.949-8.829 8.82 0 4.872 3.953 8.82 8.83 8.82h14.694c4.876 0 8.83-3.948 8.83-8.82 0-4.871-3.954-8.82-8.83-8.82z"/></g><g><path fill="#fff" d="M155.869.575c-1.147-2.165-20.017 1.72-35.286 14.68-2.932 2.483-23.97 20.792-20.591 35.248a11.738 11.738 0 0 1 0 8.82 7.964 7.964 0 0 1-2.933 2.93c-7.522.19-12.144 5.126-11.762 8.82.383 3.694 5.579 5.763 5.866 5.89h11.761a7.498 7.498 0 0 1 4.766 3.186 7.479 7.479 0 0 1-2.073 10.38 7.496 7.496 0 0 1-5.625 1.114h-49.98a8 8 0 0 0-4.625 3.292 7.985 7.985 0 0 0-1.272 5.528 7.803 7.803 0 0 0 5.897 5.859h17.627c2.295 0 24.64-.923 44.115 0 2.837 0 7.937.446 8.83 2.961.892 2.516-2.104 5.095-2.933 5.859-6.375 5.827-13.133 1.306-17.66 5.891-4.525 4.585-3.346 12.737-2.932 17.609.415 4.871 1.562 7.26 0 8.82-1.562 1.56-5.323-.605-11.762 0-.7 0-10.71 1.082-11.762 5.891-.637 2.833 2.04 6.368 5.866 8.788 12.973.414 22.535.255 29.42 0 3.762 0 9.563-.414 11.762 2.961a5.888 5.888 0 0 1 0 5.859 6.375 6.375 0 0 1-5.865 2.93H50.012a8.027 8.027 0 0 0-5.897 8.82 7.832 7.832 0 0 0 5.897 5.891h129.381a9.325 9.325 0 0 0 2.964-5.891c.224-4.172-3.474-6.082-2.964-8.82.669-3.185 6.789-3.726 11.794-5.859 9.786-4.203 13.929-14.52 17.627-23.5 2.964-7.196 7.682-18.723 2.932-29.39-.35-.796-4.08-8.947-8.797-8.82-4.208 0-5.961 6.368-8.83 5.891-2.868-.478-3.825-6.655-5.897-11.75-2.071-5.095-4.685-8.47-35.222-29.39-9.37-6.368-15.332-10.285-14.694-14.68a7.99 7.99 0 0 1 5.865-5.89c4.686-1.114 6.949 3.662 11.762 2.93 5.419-.796 8.383-7.738 8.829-8.789a20.543 20.543 0 0 0 0-14.71c-3.187-8.503-9.052-9.553-8.829-14.68.287-6.368 9.562-10.667 8.829-11.75-.733-1.082-10.646 4.522-11.762 2.866-1.115-1.656 3.57-4.521 2.869-5.795z"/></g><g><path fill="#fff" d="M282.73 94.83v43.942h-9.562v-36.873h-15.555v36.936h-9.563V94.83z"/></g><g><path fill="#fff" d="M321.11 131.19l.382 7.132c-3.953.424-10.753.637-20.4.637a10.016 10.016 0 0 1-7.013-2.389 8.405 8.405 0 0 1-2.614-6.368v-26.715a8.271 8.271 0 0 1 2.646-6.369 10.08 10.08 0 0 1 6.98-2.388c9.563 0 16.448.191 20.4.637l-.382 7.196h-16.957a3.19 3.19 0 0 0-2.295.765 3.723 3.723 0 0 0-.702 2.483v6.687h17.596v7.005h-17.532v8.47a3.85 3.85 0 0 0 .702 2.548 3.19 3.19 0 0 0 2.295.764z"/></g><g><path fill="#fff" d="M328.63 138.765V94.823c3.953-.382 9.563-.573 16.766-.573 6.12 0 10.328.987 12.75 2.993 2.423 2.006 3.411 5.764 3.411 11.336s-1.052 9.33-3.187 11.367a16.843 16.843 0 0 1-11.507 3.025c-2.77-.009-5.538-.179-8.288-.509v16.303zm9.754-23.245h6.757a7.496 7.496 0 0 0 5.164-1.464 8.209 8.209 0 0 0 1.339-5.477 8.081 8.081 0 0 0-1.339-5.477 7.05 7.05 0 0 0-5.164-1.401h-6.757z"/></g><g><path fill="#fff" d="M392.316 116.097a8.965 8.965 0 0 1 6.981 3.184 14.062 14.062 0 0 1 2.072 8.374 10.465 10.465 0 0 1-3.379 9.266 20.481 20.481 0 0 1-11.475 2.42c-8.096 0-14.312-.19-18.615-.51V94.827c3.825-.35 9.371-.51 16.575-.51a22.077 22.077 0 0 1 12.113 2.389 10.413 10.413 0 0 1 3.378 9.075 12.09 12.09 0 0 1-1.785 7.228 7.68 7.68 0 0 1-5.865 2.834zm-14.917-3.44h7.14a7.433 7.433 0 0 0 4.813-1.146 5.887 5.887 0 0 0 1.307-4.521 5.345 5.345 0 0 0-1.37-4.394 8.997 8.997 0 0 0-5.324-1.083H377.4zm0 19.106h7.395a9.092 9.092 0 0 0 5.482-1.178 6.366 6.366 0 0 0 1.403-4.808 7.156 7.156 0 0 0-1.466-5.318 8.421 8.421 0 0 0-5.61-1.433h-7.204z"/></g><g><path fill="#fff" d="M418.396 111.133h6.375c6.025 0 10.232 1.019 12.527 3.184 2.295 2.166 3.475 5.732 3.475 11.145 0 5.413-1.084 8.947-3.188 10.954a16.397 16.397 0 0 1-11.092 2.993c-7.587 0-13.42-.191-17.468-.51h-.255V94.83h9.563zm0 20.634h6.375a6.922 6.922 0 0 0 5.037-1.306 8.908 8.908 0 0 0 1.147-5.445 9.29 9.29 0 0 0-1.18-5.604 6.376 6.376 0 0 0-5.004-1.465h-6.375zm38.25-36.937v43.942h-9.562V94.83z"/></g><g><path fill="#fff" d="M502.033 138.767h-9.308v-26.238c.002-1.988.194-3.971.574-5.922h-.446c-.66 2-1.492 3.938-2.487 5.795l-14.853 26.365h-9.563V94.825h9.244v25.792a40.081 40.081 0 0 1-.51 6.114h.255a40.672 40.672 0 0 1 2.55-5.732l14.854-26.174h9.562zm-7.204-56.997a8.016 8.016 0 0 1-2.359 6.973 10.871 10.871 0 0 1-8.032 2.898 11.136 11.136 0 0 1-8.097-2.898 7.96 7.96 0 0 1-2.422-6.973h6.375c0 3.47 1.243 5.222 4.271 5.222 3.028 0 4.08-1.751 3.889-5.222z"/></g><g><path fill="#fff" d="M548.761 127.365h-15.108l-3.188 11.527h-9.945l12.75-41.395a2.93 2.93 0 0 1 1.211-1.846 3.54 3.54 0 0 1 2.168-.7h9.18a3.19 3.19 0 0 1 3.379 2.546l12.75 41.395h-9.882zm-2.103-7.514l-3.698-13.438c-.51-2.133-.797-3.502-.892-4.14h-1.722c0 .415-.223 1.083-.446 2.039a76.696 76.696 0 0 1-.51 2.101l-3.697 13.437z"/></g><g><path fill="#fff" d="M600.533 148.38l-.765-9.553H570.57l-.765 9.553h-6.885v-16.622h4.654a92.798 92.798 0 0 0 5.737-27.766 9.544 9.544 0 0 1 3.188-6.655 10.175 10.175 0 0 1 7.204-2.515h18.041v36.936h5.737v16.622zm-8.543-16.621V101.89h-5.674a3.797 3.797 0 0 0-2.773.86 4.455 4.455 0 0 0-.988 2.897 120.515 120.515 0 0 1-2.04 15.157 47.253 47.253 0 0 1-3.761 11.017z"/></g><g><path fill="#fff" d="M648.787 94.827h9.37a3.19 3.19 0 0 1 3.513 2.156c.156.475.197.98.122 1.474l1.657 40.312h-9.18l-1.402-36.364h-1.148l-6.63 27.193a3.565 3.565 0 0 1-3.889 3.184h-6.375a3.764 3.764 0 0 1-4.016-3.184l-6.694-27.193h-1.084l-1.275 36.364h-9.116l1.594-40.312a3.181 3.181 0 0 1 2.158-3.509 3.19 3.19 0 0 1 1.476-.121h9.37a3.604 3.604 0 0 1 3.826 3.184l5.355 21.907.67 3.566c.286 1.529.446 2.389.478 2.612h.828c0-.223.191-1.083.478-2.612l.67-3.566 5.291-21.907a3.63 3.63 0 0 1 3.953-3.184z"/></g><g><path fill="#fff" d="M707.883 138.772h-9.308v-26.238c.002-1.988.194-3.971.574-5.923h-.446c-.66 2-1.492 3.94-2.486 5.796l-14.854 26.365H671.8V94.83h9.244v25.792a40.08 40.08 0 0 1-.51 6.114h.382a40.664 40.664 0 0 1 2.55-5.732L698.32 94.83h9.563z"/></g><g><path fill="#fff" d="M751.998 94.83v43.942h-9.754v-19.615h-15.491v19.615h-9.563V94.83h9.563v16.812h15.49V94.83z"/></g><g><path fill="#fff" d="M250.606 186.528h-3.666V157.87h3.666z"/></g><g><path fill="#fff" d="M277.311 161.184h-9.243v25.474h-3.507v-25.474h-9.371V158h22.121z"/></g><g><path fill="#fff" d="M289.711 166.76a62.476 62.476 0 0 1 9.786-.892 7.656 7.656 0 0 1 5.196 1.465 6.367 6.367 0 0 1 1.689 4.999v14.201h-2.773l-.415-3.184a13.74 13.74 0 0 1-3.633 2.58 10.242 10.242 0 0 1-4.686 1.082 6.38 6.38 0 0 1-4.399-1.465 5.318 5.318 0 0 1-1.625-4.171v-2.165a4.58 4.58 0 0 1 1.466-3.662 5.933 5.933 0 0 1 4.144-1.306h8.35v-1.783a3.593 3.593 0 0 0-.892-2.706 4.944 4.944 0 0 0-3.187-.796c-2.04-.191-4.94.063-8.67.414zm2.71 12.8v1.274a3.18 3.18 0 0 0 .765 2.324c.68.526 1.533.777 2.39.7a9.573 9.573 0 0 0 3.602-.732 11.765 11.765 0 0 0 3.634-2.292v-4.044h-7.841a2.49 2.49 0 0 0-2.536 1.691 2.481 2.481 0 0 0-.11 1.079z"/></g><g><path fill="#fff" d="M330.612 166.34l-8.033 21.302a12.959 12.959 0 0 1-3.825 5.86 9.856 9.856 0 0 1-7.49 1.337l.319-2.452a7.944 7.944 0 0 0 4.845-.892 8.852 8.852 0 0 0 2.836-4.107l.351-.86h-.86a1.308 1.308 0 0 1-1.307-.924L310.18 166.5h3.761l5.45 14.998c.288.923.543 1.751.734 2.452h.574c.191-.542.478-1.37.829-2.452l5.323-15.03z"/></g><g><path fill="#fff" d="M350.627 169.238h-7.268v17.29h-3.538v-17.29h-7.331v-2.898h18.137z"/></g><g><path fill="#fff" d="M369.754 183.631l.35 2.357a21.47 21.47 0 0 1-6.885 1.018 9.57 9.57 0 0 1-7.427-2.388 12.154 12.154 0 0 1-1.976-8.215 11.9 11.9 0 0 1 2.167-8.151 9.565 9.565 0 0 1 7.396-2.389c2.164-.053 4.321.27 6.375.956l-.447 2.26a63.165 63.165 0 0 0-5.482-.254 6.381 6.381 0 0 0-5.037 1.624 9.163 9.163 0 0 0-1.434 5.954 9.322 9.322 0 0 0 1.434 6.018 6.377 6.377 0 0 0 5.037 1.624 40.992 40.992 0 0 0 5.929-.414z"/></g><g><path fill="#fff" d="M383.36 165.868a9.572 9.572 0 0 1 7.33 2.388 12.313 12.313 0 0 1 2.168 8.215c.276 2.898-.493 5.8-2.167 8.183a9.566 9.566 0 0 1-7.332 2.388 9.572 9.572 0 0 1-7.236-2.356 12.25 12.25 0 0 1-2.135-8.183 12.345 12.345 0 0 1 2.135-8.215 9.565 9.565 0 0 1 7.236-2.42zm0 2.96a5.488 5.488 0 0 0-4.59 1.625 10.435 10.435 0 0 0-1.244 6.018c-.2 2.075.233 4.162 1.243 5.986a7.24 7.24 0 0 0 9.148 0 10.309 10.309 0 0 0 1.243-5.986c.2-2.085-.234-4.182-1.243-6.018a5.45 5.45 0 0 0-4.558-1.688z"/></g><g><path fill="#fff" d="M401.34 166.346l.288 3.184a12.75 12.75 0 0 1 3.92-2.738 10.88 10.88 0 0 1 4.463-.987 5.807 5.807 0 0 1 5.29 2.643 15.398 15.398 0 0 1 1.659 8.024 13.554 13.554 0 0 1-1.817 8.088 6.822 6.822 0 0 1-5.802 2.388 13.876 13.876 0 0 1-7.458-2.07 40.425 40.425 0 0 1 0 4.076v5.827h-3.443v-28.435zm.638 16.367a25.017 25.017 0 0 0 6.375 1.242 4.371 4.371 0 0 0 3.825-1.529 10.975 10.975 0 0 0 1.084-5.89 12.533 12.533 0 0 0-1.02-5.923 3.664 3.664 0 0 0-3.41-1.688 12.756 12.756 0 0 0-6.854 3.025z"/></g><g><path fill="#fff" d="M437.771 183.627l.319 2.357a21.186 21.186 0 0 1-6.885 1.019 9.572 9.572 0 0 1-7.268-2.325 12.154 12.154 0 0 1-2.167-8.215 12.059 12.059 0 0 1 2.167-8.151 9.565 9.565 0 0 1 7.395-2.389 18.441 18.441 0 0 1 6.375.956l-.446 2.26a62.435 62.435 0 0 0-5.45-.254 6.382 6.382 0 0 0-5.037 1.624 9.163 9.163 0 0 0-1.434 5.954 9.544 9.544 0 0 0 1.402 6.018 6.375 6.375 0 0 0 5.068 1.624 41.48 41.48 0 0 0 5.961-.477z"/></g><g><path fill="#fff" d="M460.729 186.528h-3.188v-13.374-1.465-1.241a9.327 9.327 0 0 1-1.402 2.356l-10.264 13.724h-2.805V166.34h3.188V182.42c.387-.834.88-1.615 1.466-2.324l10.264-13.756h2.868z"/></g><g><path fill="#fff" d="M484.883 166.34v20.188h-3.57v-9.362h-10.519v9.362h-3.474V166.34h3.474v8.12h10.52v-8.12z"/></g><g><path fill="#fff" d="M491.355 186.528v-15.921a3.913 3.913 0 0 1 2.67-4.244 3.925 3.925 0 0 1 1.792-.15c4.845 0 8.352 0 10.583.318v2.484h-9.148a2.616 2.616 0 0 0-1.881.605 2.641 2.641 0 0 0-.574 1.878v14.966z"/></g><g><path fill="#fff" d="M528.399 165.863a9.572 9.572 0 0 1 7.33 2.389c1.662 2.4 2.418 5.31 2.136 8.215a12.25 12.25 0 0 1-2.135 8.183 9.566 9.566 0 0 1-7.331 2.388 9.574 9.574 0 0 1-7.395-2.388 12.25 12.25 0 0 1-2.136-8.183 12.345 12.345 0 0 1 2.135-8.215 9.565 9.565 0 0 1 7.396-2.389zm0 2.962a5.615 5.615 0 0 0-4.622 1.624 10.467 10.467 0 0 0-1.212 6.018 10.371 10.371 0 0 0 1.212 5.986 5.612 5.612 0 0 0 4.622 1.624 5.456 5.456 0 0 0 4.558-1.624 10.308 10.308 0 0 0 1.243-5.986c.199-2.085-.234-4.182-1.243-6.018a5.451 5.451 0 0 0-4.558-1.688z"/></g><g><path fill="#fff" d="M556.736 157.55v8.343a12.76 12.76 0 0 1 8.447 2.706 10.506 10.506 0 0 1 2.55 7.865 10.435 10.435 0 0 1-2.55 7.801 12.568 12.568 0 0 1-8.447 2.707v7.865h-3.187v-7.865a12.567 12.567 0 0 1-8.447-2.707 10.441 10.441 0 0 1-2.518-7.8 10.498 10.498 0 0 1 2.486-7.707 12.759 12.759 0 0 1 8.447-2.706v-8.502zm-3.187 26.429v-15.22a9.186 9.186 0 0 0-5.993 1.91 7.798 7.798 0 0 0-1.721 5.731 7.666 7.666 0 0 0 1.721 5.668 9.187 9.187 0 0 0 6.024 1.91zm3.187-15.157v15.157a9.155 9.155 0 0 0 5.96-1.847 7.672 7.672 0 0 0 1.722-5.668 7.891 7.891 0 0 0-1.721-5.731 9.154 9.154 0 0 0-6.088-1.975z"/></g><g><path fill="#fff" d="M590.995 186.528h-3.188v-13.374-1.465-1.241a9.327 9.327 0 0 1-1.403 2.356l-10.263 13.724h-2.901V166.34h3.188V182.42a10.73 10.73 0 0 1 1.434-2.324l10.264-13.756h2.868z"/></g><g><path fill="#fff" d="M612.774 183.631l.319 2.357a21.313 21.313 0 0 1-6.886 1.019 9.572 9.572 0 0 1-7.395-2.389 11.995 11.995 0 0 1-2.167-8.215 12.059 12.059 0 0 1 2.167-8.151 9.565 9.565 0 0 1 7.395-2.389c2.165-.053 4.322.27 6.376.956l-.447 2.26a62.58 62.58 0 0 0-5.482-.254 6.382 6.382 0 0 0-5.036 1.624 9.545 9.545 0 0 0-1.403 5.954 9.354 9.354 0 0 0 1.403 6.018 6.376 6.376 0 0 0 5.036 1.624 41.492 41.492 0 0 0 6.12-.414z"/></g><g><path fill="#fff" d="M626.216 165.86a9.572 9.572 0 0 1 7.33 2.389 12.313 12.313 0 0 1 2.169 8.215c.275 2.898-.493 5.8-2.168 8.183a12.504 12.504 0 0 1-14.695 0 12.218 12.218 0 0 1-2.167-8.183 12.313 12.313 0 0 1 2.167-8.215 9.565 9.565 0 0 1 7.364-2.389zm0 2.962a5.488 5.488 0 0 0-4.59 1.624 10.435 10.435 0 0 0-1.243 6.018 10.308 10.308 0 0 0 1.179 5.986 7.24 7.24 0 0 0 9.148 0 10.308 10.308 0 0 0 1.243-5.986c.2-2.085-.234-4.182-1.243-6.018a5.451 5.451 0 0 0-4.494-1.688z"/></g><g><path fill="#fff" d="M653.663 176.085a5.581 5.581 0 0 1 3.889 1.497 5.727 5.727 0 0 1 1.147 3.853 4.549 4.549 0 0 1-1.785 4.14 12.921 12.921 0 0 1-6.375 1.114c-3.92 0-7.044 0-9.339-.255v-20.029c2.04 0 4.75-.254 8.224-.254a13.974 13.974 0 0 1 6.63 1.114 4.587 4.587 0 0 1 1.849 4.267 4.805 4.805 0 0 1-1.02 3.184 4.88 4.88 0 0 1-3.22 1.37zm-9.052-1.21h5.323a7.21 7.21 0 0 0 3.665-.636 2.61 2.61 0 0 0 1.052-2.42 2.322 2.322 0 0 0-1.147-2.293 9.572 9.572 0 0 0-4.112-.605h-4.781zm0 2.548v6.56h5.642a8.199 8.199 0 0 0 3.952-.67 2.771 2.771 0 0 0 1.116-2.579 2.864 2.864 0 0 0-1.18-2.642 7.911 7.911 0 0 0-4.08-.733z"/></g></g></svg>