<svg xmlns="http://www.w3.org/2000/svg" width="214" height="189" viewBox="0 0 214 189"><g><g><path fill="#fff" d="M52.95 79.89c4.876 0 8.829-3.949 8.829-8.82s-3.953-8.82-8.83-8.82c-4.876 0-8.829 3.949-8.829 8.82 0 4.872 3.953 8.82 8.83 8.82z"/></g><g><path fill="#fff" d="M8.83 135.71c4.876 0 8.829-3.949 8.829-8.82s-3.953-8.82-8.83-8.82c-4.876 0-8.829 3.949-8.829 8.82s3.953 8.82 8.83 8.82z"/></g><g><path fill="#fff" d="M52.95 165.1c4.876 0 8.829-3.948 8.829-8.82 0-4.871-3.953-8.82-8.83-8.82-4.876 0-8.829 3.949-8.829 8.82 0 4.872 3.953 8.82 8.83 8.82z"/></g><g><path fill="#fff" d="M204.413 188.601c4.067 0 7.363-3.293 7.363-7.356 0-4.062-3.296-7.355-7.363-7.355-4.066 0-7.363 3.293-7.363 7.355 0 4.063 3.297 7.356 7.363 7.356z"/></g><g><path fill="#fff" d="M76.468 118.07H38.249c-4.876 0-8.829 3.949-8.829 8.82s3.953 8.82 8.83 8.82h38.218c4.876 0 8.83-3.949 8.83-8.82s-3.954-8.82-8.83-8.82z"/></g><g><path fill="#fff" d="M23.524 170.96H8.829c-4.876 0-8.829 3.949-8.829 8.82 0 4.872 3.953 8.82 8.83 8.82h14.694c4.876 0 8.83-3.948 8.83-8.82 0-4.871-3.954-8.82-8.83-8.82z"/></g><g><path fill="#fff" d="M155.869.575c-1.147-2.165-20.017 1.72-35.286 14.68-2.932 2.483-23.97 20.792-20.591 35.248a11.738 11.738 0 0 1 0 8.82 7.964 7.964 0 0 1-2.933 2.93c-7.522.19-12.144 5.126-11.762 8.82.383 3.694 5.579 5.763 5.866 5.89h11.761a7.498 7.498 0 0 1 4.766 3.186 7.479 7.479 0 0 1-2.073 10.38 7.496 7.496 0 0 1-5.625 1.114h-49.98a8 8 0 0 0-4.625 3.292 7.985 7.985 0 0 0-1.272 5.528 7.803 7.803 0 0 0 5.897 5.859h17.627c2.295 0 24.64-.923 44.115 0 2.837 0 7.937.446 8.83 2.961.892 2.516-2.104 5.095-2.933 5.859-6.375 5.827-13.133 1.306-17.66 5.891-4.525 4.585-3.346 12.737-2.932 17.609.415 4.871 1.562 7.26 0 8.82-1.562 1.56-5.323-.605-11.762 0-.7 0-10.71 1.082-11.762 5.891-.637 2.833 2.04 6.368 5.866 8.788 12.973.414 22.535.255 29.42 0 3.762 0 9.563-.414 11.762 2.961a5.888 5.888 0 0 1 0 5.859 6.375 6.375 0 0 1-5.865 2.93H50.012a8.027 8.027 0 0 0-5.897 8.82 7.832 7.832 0 0 0 5.897 5.891h129.381a9.325 9.325 0 0 0 2.964-5.891c.224-4.172-3.474-6.082-2.964-8.82.669-3.185 6.789-3.726 11.794-5.859 9.786-4.203 13.929-14.52 17.627-23.5 2.964-7.196 7.682-18.723 2.932-29.39-.35-.796-4.08-8.947-8.797-8.82-4.208 0-5.961 6.368-8.83 5.891-2.868-.478-3.825-6.655-5.897-11.75-2.071-5.095-4.685-8.47-35.222-29.39-9.37-6.368-15.332-10.285-14.694-14.68a7.99 7.99 0 0 1 5.865-5.89c4.686-1.114 6.949 3.662 11.762 2.93 5.419-.796 8.383-7.738 8.829-8.789a20.543 20.543 0 0 0 0-14.71c-3.187-8.503-9.052-9.553-8.829-14.68.287-6.368 9.562-10.667 8.829-11.75-.733-1.082-10.646 4.522-11.762 2.866-1.115-1.656 3.57-4.521 2.869-5.795z"/></g></g></svg>