<svg width="10" height="10" viewBox="0 0 10 10" fill="none" xmlns="http://www.w3.org/2000/svg">
<path d="M7.35678 0.976545C6.70579 0.325447 5.92013 0 5 0C4.07983 0 3.29426 0.325515 2.64323 0.976545C1.99222 1.62755 1.66669 2.41314 1.66669 3.33332C1.66669 3.80646 1.73829 4.19487 1.88147 4.4987L4.25779 9.53787C4.32291 9.68098 4.42386 9.79384 4.56057 9.87622C4.69729 9.9587 4.84376 10 5.00005 10C5.1563 10 5.30283 9.9587 5.43954 9.87622C5.57626 9.79384 5.67926 9.68098 5.74872 9.53787L8.11838 4.4987C8.26163 4.19487 8.33328 3.80644 8.33328 3.33332C8.33339 2.41314 8.00792 1.62764 7.35678 0.976545ZM6.17833 4.51172C5.85286 4.83716 5.4601 4.99995 5 4.99995C4.53991 4.99995 4.14714 4.83716 3.82158 4.51172C3.49607 4.18616 3.33328 3.79339 3.33328 3.3333C3.33328 2.87324 3.49607 2.48041 3.82158 2.15494C4.14714 1.82943 4.53997 1.66664 5 1.66664C5.4601 1.66664 5.85286 1.82943 6.17833 2.15494C6.50383 2.48039 6.66662 2.87324 6.66662 3.3333C6.66662 3.79335 6.50385 4.18609 6.17833 4.51172Z" fill="white"/>
</svg>
