<svg xmlns="http://www.w3.org/2000/svg" width="10" height="10" viewBox="0 0 10 10"><g><g><path fill="#0e209d" d="M9.619 6.507a.786.786 0 0 0-.388-.504L7.5 5l1.732-1.003a.786.786 0 0 0 .388-.504.821.821 0 0 0-.082-.635l-.417-.716a.786.786 0 0 0-.504-.387.821.821 0 0 0-.635.081l-1.732.996V.833a.8.8 0 0 0-.247-.586A.8.8 0 0 0 5.416 0h-.833a.801.801 0 0 0-.586.247.801.801 0 0 0-.248.586v2l-1.732-.997a.821.821 0 0 0-.634-.082.786.786 0 0 0-.505.388l-.417.716a.82.82 0 0 0-.081.635.786.786 0 0 0 .387.504L2.5 5 .767 6.003a.786.786 0 0 0-.387.504.821.821 0 0 0 .081.635l.417.716c.113.2.281.329.505.388a.821.821 0 0 0 .634-.082l1.732-.996v1.999a.8.8 0 0 0 .248.586.8.8 0 0 0 .586.247h.833a.8.8 0 0 0 .586-.247.8.8 0 0 0 .247-.586V7.168l1.732.996c.2.113.411.14.635.082a.786.786 0 0 0 .504-.388l.417-.716c.113-.2.14-.411.082-.635z"/></g></g></svg>