<svg width="1920" height="905" viewBox="0 0 1920 905" fill="none" xmlns="http://www.w3.org/2000/svg">
<rect width="1920" height="905" fill="#FAFBFD"/>
<mask id="mask0" mask-type="alpha" maskUnits="userSpaceOnUse" x="0" y="0" width="1920" height="905">
<rect width="1920" height="905" fill="#FAFBFD"/>
</mask>
<g mask="url(#mask0)">
<path d="M881.572 853.418C863.459 910.067 810.906 960 810.906 960H-6V290.392C-6 290.392 69.1349 185.502 152.646 181.441C219.314 178.199 259.773 236.427 326.486 234.224C381.492 232.408 426.083 191.119 480.186 181.441C570.884 165.215 583.202 178.522 654.824 234.224C717.32 282.829 755.061 291.142 771.085 366.698C792.533 467.836 746.623 486.511 776.986 546.866C804.839 602.233 877.517 614.661 901.359 671.72C924.935 728.143 900.152 795.308 881.572 853.418Z" fill="url(#paint0_linear)"/>
<path d="M1877.49 77.6703C1805.4 103.16 1782.42 166.227 1766.85 240.864C1766.85 240.864 1749.89 331.457 1785.05 386.307C1820.7 441.913 1865.91 465.495 1924.66 483.793C2005.78 509.055 2070.11 497.073 2101.07 435.797C2134.71 369.195 2035.3 210.116 2035.3 210.116C2019.99 186.208 1958.79 48.9242 1877.49 77.6703Z" fill="#0E209D" fill-opacity="0.05"/>
<path d="M906.973 640.934C927.027 533.027 865.122 459.204 783.517 386.287C783.517 386.287 683.079 300.187 589.665 304.529C494.962 308.932 433.2 348.211 368.288 408.113C278.673 490.811 247.396 579.382 301.351 661.831C359.997 751.447 629.082 742.044 629.082 742.044C669.789 740.171 884.357 762.626 906.973 640.934Z" fill="#0E209D" fill-opacity="0.05"/>
</g>
<defs>
<linearGradient id="paint0_linear" x1="452.5" y1="960" x2="452.5" y2="171.185" gradientUnits="userSpaceOnUse">
<stop stop-color="#3371FB"/>
<stop offset="1" stop-color="#0E209D"/>
</linearGradient>
</defs>
</svg>
