<svg width="1920" height="701" viewBox="0 0 1920 701" fill="none" xmlns="http://www.w3.org/2000/svg">
<path d="M35.792 83.9736C-53.2077 115.441 -81.5734 193.299 -100.793 285.44C-100.793 285.44 -121.733 397.279 -78.3257 464.992C-34.3198 533.64 21.4987 562.752 94.0315 585.342C194.169 616.529 273.592 601.736 311.802 526.09C353.333 443.868 230.61 247.481 230.61 247.481C211.709 217.966 136.162 48.4859 35.792 83.9736Z" fill="#0E209D" fill-opacity="0.05"/>
<path d="M1988.68 19.316C2008.25 47.0372 2000.39 75.7691 1986.89 106.791C1986.89 106.791 1969.79 143.948 1942.99 154.793C1915.82 165.787 1893.4 162.73 1867.43 154.287C1831.58 142.631 1811.35 121.791 1815.86 91.6624C1820.76 58.9151 1897.56 26.8038 1897.56 26.8038C1909.24 22.0728 1966.61 -11.9466 1988.68 19.316Z" fill="#0E209D" fill-opacity="0.05"/>
</svg>
