<svg width="12" height="12" viewBox="0 0 12 12" fill="none" xmlns="http://www.w3.org/2000/svg">
<path d="M12.05 9.38184L9.45261 6.98136C9.33314 6.87094 9.14673 6.87828 9.03643 6.99775L7.77531 8.36223C7.41452 8.27762 6.45227 7.96781 5.31795 6.91979C4.14108 5.83194 3.63788 4.7213 3.51152 4.40659L4.76524 3.05011C4.81837 2.99276 4.84646 2.91662 4.84339 2.83849C4.84031 2.76036 4.80632 2.68679 4.74886 2.6338L2.1515 0.233199C2.03203 0.122776 1.84562 0.130114 1.7352 0.249588L0.331983 1.76794C0.313739 1.78755 0.298541 1.80947 0.286246 1.83334L0.283673 1.83653C-0.823018 3.3116 0.466869 6.46073 3.22051 9.0059C5.18009 10.8169 7.51239 11.9451 9.16259 11.8801C9.75171 11.857 10.2309 11.6887 10.5874 11.3797L10.6208 11.3548C10.6354 11.3439 10.6488 11.332 10.661 11.3185L12.0663 9.79801C12.1195 9.74054 12.1476 9.6644 12.1445 9.58653C12.1414 9.50853 12.1073 9.43496 12.05 9.38184Z" fill="white"/>
</svg>
