<svg xmlns="http://www.w3.org/2000/svg" width="69" height="6" viewBox="0 0 69 6"><defs><linearGradient id="qsu2a" x1="5" x2="5" y1="0" y2="6" gradientUnits="userSpaceOnUse"><stop offset="0" stop-color="#3371fb"/><stop offset="1" stop-color="#0e209d"/></linearGradient><linearGradient id="qsu2b" x1="66" x2="66" y1="0" y2="6" gradientUnits="userSpaceOnUse"><stop offset="0" stop-color="#3371fb"/><stop offset="1" stop-color="#0e209d"/></linearGradient><linearGradient id="qsu2c" x1="36.5" x2="36.5" y1="0" y2="6" gradientUnits="userSpaceOnUse"><stop offset="0" stop-color="#3371fb"/><stop offset="1" stop-color="#0e209d"/></linearGradient></defs><g><g><path fill="url(#qsu2a)" d="M0 3a3 3 0 0 1 3-3h4a3 3 0 0 1 0 6H3a3 3 0 0 1-3-3z"/></g><g><path fill="url(#qsu2b)" d="M63 3a3 3 0 0 1 6 0 3 3 0 0 1-6 0z"/></g><g><path fill="url(#qsu2c)" d="M15 3a3 3 0 0 1 3-3h37a3 3 0 1 1 0 6H18a3 3 0 0 1-3-3z"/></g></g></svg>